<mxfile host="app.diagrams.net" modified="2023-08-09T18:27:15.682Z" agent="Mozilla/5.0 (Windows NT 10.0; Win64; x64; rv:109.0) Gecko/20100101 Firefox/115.0" version="21.6.7" etag="XN05z3V2ftTdsW4aHaNi" type="github">
  <diagram name="PÃ¡gina-1" id="6ZvPoXu0_xue7lMfY3uK">
    <mxGraphModel>
      <root>
        <mxCell id="0" />
        <mxCell id="1" parent="0" />
      </root>
    </mxGraphModel>
  </diagram>
</mxfile>
